<?xml version="1.0" standalone="no"?>
<!DOCTYPE svg PUBLIC "-//W3C//DTD SVG 20010904//EN"
 "http://www.w3.org/TR/2001/REC-SVG-20010904/DTD/svg10.dtd">
<svg version="1.0" xmlns="http://www.w3.org/2000/svg"
 width="8000.000000pt" height="8000.000000pt" viewBox="0 0 8000.000000 8000.000000"
 preserveAspectRatio="xMidYMid meet">

<g transform="translate(0.000000,8000.000000) scale(0.100000,-0.100000)"
fill="#000000" stroke="none">
<path d="M28330 74163 c-424 -28 -926 -131 -1308 -269 -937 -338 -1672 -909
-2296 -1784 -450 -632 -793 -1347 -1126 -2350 -264 -794 -474 -1590 -670
-2535 -133 -643 -271 -1560 -335 -2220 -9 -88 -20 -204 -25 -258 -17 -169 -49
-626 -55 -777 -3 -80 -8 -154 -10 -165 -9 -50 -20 -605 -20 -1065 0 -447 11
-1055 19 -1070 2 -3 7 -77 10 -165 4 -88 9 -173 11 -190 2 -16 7 -66 9 -110
17 -250 39 -509 62 -725 40 -382 51 -467 104 -840 44 -306 47 -325 81 -525
375 -2234 1116 -4372 2179 -6290 998 -1802 2250 -3316 3705 -4480 335 -268
832 -626 1115 -802 161 -101 520 -280 716 -357 612 -241 1195 -376 1839 -425
118 -9 676 -7 725 2 14 3 61 8 105 12 298 24 651 98 982 206 131 43 156 54
182 85 24 27 31 44 31 78 0 48 -31 103 -68 122 -16 8 -115 10 -325 8 -397 -4
-602 12 -978 76 -478 82 -1021 255 -1520 485 -420 194 -850 468 -1127 717
-180 162 -784 803 -1163 1233 -540 614 -1165 1391 -1541 1916 -775 1081 -1444
2316 -1951 3599 -561 1420 -935 2880 -1152 4490 -41 301 -99 888 -120 1205
-35 534 -40 716 -40 1395 0 934 27 1420 130 2365 66 597 181 1323 306 1931
165 808 409 1721 640 2400 304 895 575 1457 935 1939 227 304 452 524 734 717
661 452 1572 572 2522 332 1031 -260 1927 -883 2764 -1924 922 -1146 1799
-2801 2544 -4803 827 -2224 1396 -4606 1605 -6727 23 -233 40 -430 55 -615 6
-71 12 -157 15 -190 6 -68 32 -496 40 -655 4 -58 8 -134 10 -170 2 -36 7 -153
11 -260 4 -107 8 -208 9 -225 26 -309 26 -3572 0 -4305 -2 -63 -7 -297 -10
-520 -8 -642 -15 -1006 -21 -1130 -10 -236 -45 -525 -100 -838 -18 -101 -18
-103 1 -140 15 -27 31 -41 62 -52 62 -21 96 -1 186 112 278 349 490 776 695
1398 324 987 527 1879 667 2930 59 444 114 1111 130 1555 3 88 8 190 11 226 6
85 6 1205 0 1324 -3 50 -8 171 -11 270 -14 467 -57 1194 -90 1525 -2 25 -6 74
-9 110 -7 79 -25 270 -31 325 -3 22 -14 128 -25 235 -89 848 -255 1899 -426
2710 -447 2113 -1105 4135 -1918 5899 -432 935 -970 1920 -1397 2557 -600 894
-1285 1635 -2029 2193 -1009 757 -2093 1172 -3320 1271 -110 9 -608 11 -730 3z"/>
<path d="M50930 74161 c-47 -5 -119 -11 -160 -15 -41 -4 -154 -18 -250 -32
-1910 -270 -3603 -1443 -4926 -3414 -490 -729 -1114 -1896 -1567 -2930 -666
-1520 -1209 -3180 -1637 -5000 -143 -608 -321 -1577 -419 -2285 -17 -121 -35
-251 -41 -290 -17 -124 -49 -384 -75 -620 -33 -310 -38 -352 -60 -595 -17
-178 -45 -550 -54 -700 -6 -96 -13 -204 -16 -240 -2 -36 -7 -128 -10 -205 -3
-77 -8 -167 -10 -200 -28 -421 -27 -1900 0 -2360 30 -490 84 -1073 129 -1385
80 -549 101 -675 177 -1055 157 -781 420 -1695 666 -2310 128 -322 312 -645
506 -888 94 -118 127 -138 189 -117 29 10 48 26 62 49 22 38 22 33 -29 331
-27 154 -60 456 -69 630 -3 58 -8 274 -11 480 -3 206 -8 488 -10 625 -3 138
-9 536 -15 885 -5 349 -12 748 -15 885 -7 295 -7 2306 -1 2326 2 8 7 176 11
374 3 198 8 383 10 410 2 28 6 124 10 215 16 455 76 1377 110 1680 2 25 7 74
10 110 3 36 8 81 10 100 2 19 14 121 25 225 25 225 20 192 65 530 19 149 39
297 45 330 5 33 24 147 40 253 278 1765 777 3640 1446 5430 897 2400 1965
4263 3084 5382 432 431 866 750 1345 985 587 289 1185 435 1790 437 212 1 256
-1 430 -23 343 -42 709 -159 980 -311 475 -269 878 -695 1225 -1298 588 -1024
1207 -3156 1489 -5135 59 -415 87 -654 131 -1105 66 -682 85 -1121 85 -1940 0
-669 -5 -852 -40 -1385 -21 -317 -79 -904 -120 -1205 -334 -2483 -1075 -4718
-2230 -6730 -446 -777 -881 -1408 -1504 -2185 -637 -794 -1076 -1296 -1729
-1976 -287 -300 -390 -396 -550 -515 -672 -494 -1467 -842 -2305 -1008 -384
-76 -707 -105 -1120 -101 -290 2 -299 2 -330 -19 -40 -27 -57 -60 -57 -113 0
-71 37 -103 177 -152 282 -98 534 -155 908 -206 250 -34 789 -39 1075 -11 931
91 1826 384 2490 814 1039 674 2047 1560 2890 2542 1033 1204 1980 2744 2682
4365 815 1880 1348 3970 1552 6095 37 388 59 664 72 935 3 72 7 148 9 170 26
292 26 1776 0 2100 -2 28 -6 109 -10 180 -30 629 -116 1463 -225 2175 -5 30
-16 105 -25 165 -159 1057 -504 2467 -864 3535 -397 1181 -863 2042 -1484
2749 -767 871 -1776 1393 -2982 1542 -137 17 -239 22 -530 24 -198 2 -398 0
-445 -4z"/>
<path d="M13625 58659 c-1126 -54 -2148 -445 -2895 -1105 -440 -390 -768 -826
-1035 -1379 -389 -804 -621 -1850 -671 -3015 -3 -85 -8 -157 -9 -160 -8 -13
-20 -627 -20 -970 0 -348 10 -866 20 -970 2 -25 6 -106 10 -180 8 -188 28
-459 50 -690 3 -25 7 -76 10 -115 15 -173 67 -626 90 -790 3 -16 14 -97 26
-180 227 -1630 691 -3327 1329 -4860 182 -436 296 -684 532 -1155 360 -721
722 -1345 1163 -2005 1697 -2544 3852 -4405 6275 -5420 375 -158 867 -331
1078 -381 206 -48 502 -95 682 -109 47 -4 96 -9 110 -12 51 -9 649 -12 760 -3
708 57 1266 205 1810 481 246 125 458 261 498 319 48 71 -1 180 -88 193 -27 4
-20 6 -245 -51 -263 -67 -578 -119 -845 -138 -158 -12 -595 -9 -765 5 -647 53
-1263 209 -1730 436 -329 161 -1335 836 -2040 1370 -592 449 -819 627 -1085
855 -1668 1430 -3021 3246 -4010 5385 -840 1817 -1401 3909 -1590 5930 -11
121 -22 240 -25 265 -2 25 -11 153 -20 285 -8 132 -17 269 -20 305 -19 244
-27 1240 -12 1685 36 1138 155 1919 383 2523 65 172 189 432 263 551 340 548
893 914 1607 1065 249 52 337 60 674 61 364 0 466 -8 745 -60 545 -103 1153
-366 1705 -738 1589 -1074 3390 -3270 4892 -5967 387 -694 820 -1578 1123
-2290 620 -1458 1074 -2949 1759 -5780 284 -1175 421 -1731 476 -1940 120
-458 163 -698 209 -1155 8 -82 12 -92 40 -117 24 -22 41 -28 75 -28 75 0 105
39 200 262 168 396 258 873 305 1618 6 91 13 197 15 235 20 313 15 1138 -9
1425 -2 25 -6 92 -10 150 -60 1000 -290 2238 -650 3500 -486 1700 -1050 3154
-1810 4665 -389 773 -731 1379 -1137 2018 -1451 2281 -2707 3753 -4093 4795
-1027 771 -2063 1213 -3160 1346 -295 36 -653 49 -940 35z"/>
<path d="M66000 58667 c-3 -2 -77 -7 -165 -10 -219 -9 -394 -27 -645 -68 -980
-159 -1952 -592 -2880 -1284 -1356 -1011 -2586 -2431 -3985 -4600 -517 -801
-843 -1372 -1280 -2240 -760 -1511 -1323 -2963 -1810 -4666 -306 -1069 -519
-2126 -609 -3019 -16 -150 -36 -387 -41 -485 -4 -60 -9 -128 -11 -150 -19
-211 -25 -982 -11 -1340 7 -177 28 -498 42 -632 2 -26 9 -97 16 -158 24 -241
65 -485 115 -690 70 -284 221 -654 287 -700 36 -25 102 -19 138 13 28 25 32
35 40 117 45 453 90 702 206 1140 60 229 269 1074 382 1545 516 2151 764 3086
1095 4125 799 2515 2083 5012 3661 7120 796 1064 1604 1970 2289 2570 979 858
1948 1334 2896 1423 41 4 215 7 385 6 331 0 423 -9 669 -60 714 -151 1267
-517 1607 -1065 74 -119 208 -400 268 -559 142 -385 248 -875 306 -1415 9 -82
18 -166 20 -185 2 -19 11 -145 20 -280 8 -135 17 -274 20 -310 9 -130 20 -652
20 -970 0 -328 -12 -927 -19 -939 -2 -3 -7 -89 -11 -191 -4 -102 -8 -187 -10
-190 -1 -3 -6 -58 -9 -122 -4 -65 -9 -128 -11 -140 -2 -13 -6 -61 -10 -108 -3
-47 -8 -105 -11 -130 -2 -25 -11 -112 -19 -195 -116 -1156 -361 -2384 -700
-3508 -332 -1103 -793 -2226 -1305 -3177 -40 -74 -90 -169 -113 -210 -22 -41
-96 -174 -165 -295 -1060 -1864 -2481 -3438 -4402 -4876 -151 -114 -372 -275
-490 -360 -398 -284 -1202 -814 -1416 -933 -466 -261 -1163 -444 -1899 -500
-171 -13 -591 -13 -740 -1 -323 27 -719 100 -1002 184 -122 36 -219 -105 -141
-204 44 -56 351 -244 568 -348 420 -200 990 -360 1465 -411 28 -3 102 -11 165
-17 130 -14 676 -18 850 -6 369 24 773 99 1082 201 158 52 629 229 826 311
1840 762 3557 2067 5081 3860 2264 2666 3746 6119 4230 9860 27 211 92 837
105 1015 3 41 10 134 15 205 6 72 13 193 16 270 4 77 9 158 11 180 8 93 19
618 19 965 0 352 -12 957 -19 969 -2 3 -7 80 -10 171 -4 91 -9 183 -11 205 -3
22 -7 76 -10 120 -14 195 -33 371 -65 625 -59 460 -186 1012 -330 1434 -343
1006 -889 1754 -1685 2308 -617 429 -1439 710 -2295 783 -177 15 -572 30 -580
22z"/>
<path d="M41554 43680 c-256 -12 -654 -50 -834 -80 -30 -5 -100 -16 -155 -25
-957 -149 -2127 -527 -3325 -1073 -409 -187 -1025 -489 -1429 -701 -156 -83
-233 -123 -561 -294 -200 -104 -881 -467 -1065 -567 -1005 -547 -1718 -953
-2570 -1465 -1220 -732 -2438 -1533 -3475 -2284 -2063 -1493 -3831 -3056
-5345 -4721 -1990 -2189 -3574 -4631 -4623 -7131 -601 -1430 -1040 -2921
-1281 -4351 -34 -197 -79 -494 -96 -628 -17 -126 -35 -272 -39 -315 -3 -27
-14 -131 -25 -230 -11 -99 -23 -220 -26 -270 -3 -49 -8 -106 -10 -125 -2 -19
-9 -116 -15 -215 -6 -99 -13 -205 -15 -235 -3 -30 -7 -311 -10 -625 -5 -606 2
-843 40 -1332 14 -174 33 -380 40 -423 2 -14 6 -52 10 -85 22 -219 82 -625
131 -895 375 -2057 1164 -3843 2346 -5307 319 -395 817 -916 1178 -1232 582
-509 1229 -963 1920 -1347 1199 -665 2580 -1102 3915 -1239 228 -23 229 -23
405 -36 264 -20 1282 -16 1370 6 8 2 58 6 110 10 52 3 154 13 225 20 1170 130
2256 447 3295 961 329 162 537 277 572 315 50 53 49 126 -3 178 -54 54 -76 52
-297 -32 -673 -257 -1276 -427 -1956 -552 -289 -53 -747 -114 -981 -130 -49
-4 -101 -8 -114 -10 -138 -22 -1044 -26 -1336 -7 -1024 69 -2091 320 -3060
719 -493 204 -1044 486 -1495 766 -1386 860 -2489 2007 -3290 3422 -135 238
-387 751 -493 1000 -417 985 -679 1977 -831 3145 -13 96 -29 252 -61 595 -25
277 -41 761 -39 1185 4 534 26 959 79 1480 10 98 45 394 50 420 2 14 7 48 10
75 12 105 78 519 115 725 373 2060 1135 4104 2278 6110 1280 2247 3010 4362
5167 6315 2148 1945 4650 3694 7895 5517 571 321 1408 770 2250 1208 636 330
1574 788 2045 998 1635 728 2929 1012 4140 907 1012 -87 2061 -504 3245 -1290
628 -417 1146 -811 2710 -2060 1780 -1422 2884 -2340 3925 -3265 1363 -1210
2550 -2382 3560 -3515 1829 -2052 3194 -4095 4158 -6225 733 -1619 1246 -3365
1491 -5080 39 -268 83 -630 101 -815 24 -254 50 -604 60 -810 3 -66 8 -158 11
-206 9 -161 11 -864 3 -1014 -91 -1712 -663 -3455 -1594 -4860 -573 -866
-1295 -1620 -2063 -2158 -886 -620 -1890 -1018 -2982 -1181 -91 -14 -201 -28
-245 -31 -44 -4 -86 -8 -92 -10 -7 -3 -91 -7 -185 -10 -95 -4 -179 -9 -187
-11 -16 -5 -884 -5 -956 1 -27 2 -115 6 -195 10 -80 3 -165 8 -190 10 -25 3
-85 7 -135 10 -88 5 -379 31 -460 40 -309 35 -433 51 -610 76 -217 31 -596 92
-675 109 -25 5 -97 19 -160 31 -63 11 -218 43 -345 69 -2521 531 -5295 1669
-7860 3225 -336 204 -505 309 -505 315 0 3 76 54 168 114 1219 797 2447 1691
3417 2490 913 751 1850 1635 2449 2309 963 1085 1668 2372 2105 3837 199 671
345 1435 405 2130 9 96 18 198 21 225 19 205 28 1052 13 1281 -98 1442 -701
2849 -1635 3814 -756 781 -1659 1223 -2703 1321 -152 14 -553 14 -710 -1
-1394 -126 -2746 -903 -3974 -2283 -82 -92 -150 -167 -151 -167 -2 0 -99 96
-216 213 -242 242 -385 374 -609 560 -732 611 -1490 1039 -2345 1323 -432 143
-823 230 -1308 289 -334 41 -813 41 -1164 0 -1043 -122 -1923 -545 -2623
-1261 -289 -296 -514 -595 -724 -963 -430 -749 -715 -1711 -806 -2716 -33
-368 -39 -530 -35 -960 2 -220 6 -416 8 -435 3 -19 8 -82 12 -140 3 -58 8
-123 10 -145 3 -22 7 -65 10 -95 166 -1836 964 -3878 2264 -5790 551 -812
1177 -1590 1930 -2400 351 -377 1040 -1049 1476 -1440 617 -553 1359 -1157
2017 -1639 l127 -94 -127 -92 c-451 -325 -1421 -1006 -2077 -1455 -203 -140
-423 -290 -487 -335 -64 -44 -188 -128 -275 -187 -87 -58 -239 -161 -338 -229
-99 -67 -458 -308 -797 -536 -340 -227 -624 -424 -633 -436 -8 -12 -15 -40
-15 -62 1 -61 45 -105 108 -105 65 0 1414 674 2307 1153 862 461 1871 1034
2767 1570 153 92 287 171 297 177 16 8 49 -10 203 -113 651 -437 1542 -981
2183 -1332 746 -409 1550 -811 2245 -1122 1973 -885 3874 -1491 5832 -1862
381 -72 947 -155 1403 -206 220 -24 514 -49 705 -60 58 -3 114 -8 125 -10 56
-10 491 -20 895 -20 390 1 662 11 815 30 17 2 62 7 100 10 39 4 140 15 225 26
1043 131 2026 432 2955 904 1310 666 2449 1649 3355 2895 1184 1630 1936 3587
2164 5635 21 188 44 537 56 840 8 194 5 932 -4 1035 -2 25 -7 117 -11 205 -3
88 -8 169 -10 180 -2 11 -7 70 -10 130 -3 61 -8 128 -10 150 -2 22 -7 72 -10
110 -73 861 -225 1849 -421 2730 -852 3827 -2869 7517 -5988 10955 -1137 1253
-2610 2659 -4311 4116 -1116 955 -2805 2323 -4485 3633 -1546 1204 -2567 1839
-3675 2286 -723 292 -1534 487 -2195 530 -52 3 -113 8 -135 10 -100 9 -548 12
-711 5z m4768 -14676 c472 -60 923 -257 1328 -580 119 -95 359 -338 464 -469
102 -128 286 -401 376 -560 292 -513 497 -1161 564 -1780 32 -298 39 -440 38
-785 -2 -753 -112 -1596 -307 -2355 -286 -1111 -761 -2148 -1383 -3020 -507
-710 -1345 -1609 -2422 -2596 -840 -770 -2124 -1834 -3360 -2785 -392 -302
-422 -324 -434 -317 -25 16 -154 106 -366 257 -1996 1418 -3656 2995 -4895
4651 -1314 1756 -2090 3514 -2304 5219 -26 205 -35 293 -56 586 -9 125 -6 731
5 888 43 629 150 1139 336 1609 420 1062 1114 1660 2094 1807 134 20 329 28
555 22 281 -7 287 -8 515 -42 950 -144 1860 -599 2695 -1347 193 -173 564
-553 654 -669 12 -16 1 -37 -82 -175 -235 -392 -388 -673 -606 -1113 -269
-542 -467 -1024 -602 -1468 -156 -513 -196 -848 -148 -1235 141 -1144 1023
-1895 2269 -1934 471 -14 828 57 1205 242 251 122 447 266 646 473 353 366
570 808 653 1332 24 150 31 251 31 465 0 258 -13 418 -49 628 -159 907 -514
1824 -1048 2704 -54 89 -98 168 -98 174 0 6 44 66 97 133 636 792 1323 1386
1988 1719 376 188 692 284 1080 330 92 11 454 6 567 -9z m-4752 -4054 c189
-406 322 -797 389 -1143 38 -196 52 -327 54 -507 2 -177 -15 -265 -79 -397
-124 -259 -341 -363 -696 -334 -212 18 -350 65 -433 148 -74 74 -111 212 -102
382 11 221 181 736 423 1284 112 255 354 741 364 731 5 -5 41 -79 80 -164z"/>
</g>
</svg>
